<svg width="113" height="30" fill="none" xmlns="http://www.w3.org/2000/svg"><path fill-rule="evenodd" clip-rule="evenodd" d="M102.647 9.37c3.899 0 7.678 2.323 9.408 6.22.63 1.418.945 2.872.945 4.29 0 3.936-2.206 7.599-5.905 9.25-1.3.594-2.636.87-3.976.87-3.939 0-7.717-2.324-9.447-6.22-.594-1.418-.91-2.876-.91-4.333 0-3.897 2.167-7.596 5.906-9.25a10.157 10.157 0 0 1 3.979-.828ZM8.466 0c.312 0 .509.118.709.355L19.21 20.667 29.25.355c.197-.237.394-.355.71-.355h7.398c.397 0 .591.197.591.59v1.183c0 .393-.194.587-.59.587-.864 0-1.691.158-2.44.591v20.473c0 2.127.985 3.739 2.912 3.739.394 0 .594.2.594.594v1.178c0 .394-.2.591-.594.591h-9.723c-.355 0-.591-.197-.591-.59v-1.179c0-.394.236-.594.59-.594 1.93 0 2.876-1.612 2.876-3.739V8.502l-9.293 18.822a.691.691 0 0 1-.67.433h-3.623c-.312 0-.549-.16-.706-.433L7.438 8.502v14.922c0 2.127.946 3.739 2.876 3.739.354 0 .59.2.59.594v1.178c0 .394-.236.591-.59.591H.588c-.391 0-.588-.197-.588-.59v-1.179c0-.394.197-.594.588-.594 1.93 0 2.915-1.612 2.915-3.739V2.951c-.749-.433-1.576-.59-2.44-.59-.393 0-.59-.195-.59-.588V.59C.473.197.67 0 1.063 0h7.403ZM48.13 8.623c.079 0 .079 0 .115.039v14.765c0 2.123.949 3.735 2.876 3.735h.121c.394 0 .588.2.588.594v1.179c0 .394-.276.59-.67.59H40.022c-.394 0-.67-.196-.67-.59v-1.179c0-.393.194-.594.588-.594h.082c1.927 0 2.873-1.611 2.833-3.735V19.25l-.001-.244-.002-.123c-.028-1.691-.302-3.585-2.321-3.805-.394-.04-.473-.24-.473-.515v-1.336c0-.315.197-.394.591-.512 4.136-1.379 6.181-2.915 7.245-4.018a.317.317 0 0 1 .157-.075h.08Zm13.942-.002c.042 0 .082 0 .082.04l-.946 5.314c1.415-3.03 4.133-4.645 6.93-4.645 2.439 0 4.444 1.379 4.444 4.054 0 1.182-.075 2.127-1.02 2.521l-3.7 1.497c-.118.075-.236.075-.354.075-.237 0-.355-.154-.355-.35 0-.119.04-.237.079-.355.312-.749.354-1.418.354-1.97 0-1.418-.787-2.048-1.848-2.048-1.812 0-3.39 1.973-3.942 3.427v7.244c0 2.124.945 3.74 2.875 3.74h.083c.39 0 .587.196.587.59v1.182c0 .394-.197.587-.587.587H53.297c-.397 0-.594-.193-.594-.587v-1.182c0-.394.197-.59.594-.59h.076c1.93 0 2.875-1.616 2.875-3.74v-5.172l-.001-.14c-.022-1.977-.276-3.951-2.323-4.177-.394-.037-.472-.237-.472-.512v-1.336c0-.319.197-.434.59-.512 3.743-.591 6.733-2.128 7.754-2.876.082-.04.118-.079.2-.079h.076Zm19.97 0c.044 0 .083 0 .083.04l-.945 5.314c1.414-3.03 4.132-4.645 6.93-4.645 2.438 0 4.444 1.379 4.444 4.054 0 1.182-.076 2.127-1.021 2.521l-3.7 1.497c-.118.075-.236.075-.354.075-.236 0-.355-.154-.355-.35 0-.119.04-.237.08-.355.311-.749.354-1.418.354-1.97 0-1.418-.788-2.048-1.848-2.048-1.812 0-3.391 1.973-3.943 3.427v7.244c0 2.124.946 3.74 2.876 3.74h.082c.39 0 .587.196.587.59v1.182c0 .394-.197.587-.587.587H73.269c-.398 0-.595-.193-.595-.587v-1.182c0-.394.197-.59.595-.59h.075c1.93 0 2.876-1.616 2.876-3.74v-4.963l-.001-.209c-.012-2.023-.23-4.086-2.323-4.317-.394-.037-.473-.237-.473-.512v-1.336c0-.319.197-.434.59-.512 3.743-.591 6.733-2.128 7.754-2.876.082-.04.118-.079.2-.079h.076Zm19.384 3.9a3.86 3.86 0 0 0-1.576.35c-1.733.752-2.4 2.325-2.4 4.137 0 1.454.434 3.072 1.103 4.605 1.26 2.797 3.342 5.236 5.788 5.236.512 0 1.02-.118 1.572-.352 1.694-.751 2.363-2.323 2.363-4.135 0-1.458-.433-3.109-1.103-4.606-1.221-2.796-3.348-5.236-5.747-5.236ZM45.494.393c.706 0 1.258.276 1.967.985.709.709.984 1.26.984 1.966 0 .71-.275 1.303-.984 1.97-.71.709-1.26.985-1.967.985-.709 0-1.303-.276-1.97-.985-.708-.667-.984-1.26-.984-1.97 0-.705.276-1.257.985-1.966.666-.709 1.26-.985 1.97-.985Z" fill="#3A5F56"/></svg>