<svg width="160" height="43" fill="none" xmlns="http://www.w3.org/2000/svg"><path fill-rule="evenodd" clip-rule="evenodd" d="M145.34 13.43c5.522 0 10.872 3.33 13.321 8.915.893 2.033 1.339 4.117 1.339 6.15 0 5.64-3.123 10.892-8.362 13.258A13.285 13.285 0 0 1 146.01 43c-5.578 0-10.927-3.331-13.377-8.916-.841-2.032-1.287-4.121-1.287-6.21 0-5.585 3.067-10.888 8.361-13.259 1.845-.79 3.737-1.186 5.633-1.186ZM11.987 0c.441 0 .72.17 1.004.508L27.2 29.622 41.417.508C41.697.17 41.975 0 42.421 0h10.477c.562 0 .836.282.836.847V2.54c0 .564-.274.842-.836.842-1.223 0-2.394.226-3.454.847v29.345c0 3.048 1.395 5.358 4.123 5.358.558 0 .841.288.841.852v1.69c0 .564-.283.846-.84.846H39.8c-.502 0-.837-.282-.837-.847v-1.689c0-.564.335-.851.837-.851 2.733 0 4.072-2.31 4.072-5.36V12.187L30.713 39.164a.979.979 0 0 1-.948.621h-5.131c-.442 0-.776-.23-1-.62l-13.102-26.98v21.39c0 3.048 1.339 5.358 4.072 5.358.502 0 .836.288.836.852v1.69c0 .564-.334.846-.836.846H.832c-.553 0-.832-.282-.832-.847v-1.689c0-.564.279-.851.832-.851 2.733 0 4.127-2.31 4.127-5.36V4.23c-1.06-.621-2.23-.847-3.453-.847-.558 0-.837-.278-.837-.842V.847C.67.282.95 0 1.506 0h10.481Zm56.162 12.359c.112 0 .112 0 .163.056v21.163c0 3.044 1.343 5.355 4.071 5.355h.172c.558 0 .832.287.832.851v1.69c0 .564-.39.846-.948.846h-15.77c-.558 0-.948-.282-.948-.847v-1.689c0-.564.274-.851.832-.851h.116c2.728 0 4.067-2.31 4.01-5.355v-6.334l-.003-.177c-.04-2.424-.428-5.138-3.287-5.453-.558-.057-.67-.344-.67-.74V18.96c0-.452.28-.565.837-.734 5.857-1.976 8.752-4.178 10.258-5.759a.447.447 0 0 1 .224-.108h.111Zm19.74-.002c.06 0 .116 0 .116.057l-1.338 7.617c2.003-4.343 5.851-6.658 9.811-6.658 3.454 0 6.294 1.976 6.294 5.811 0 1.694-.107 3.049-1.446 3.613l-5.238 2.146c-.167.108-.335.108-.502.108-.335 0-.502-.221-.502-.503 0-.17.056-.34.112-.508.441-1.073.502-2.033.502-2.823 0-2.033-1.116-2.936-2.617-2.936-2.566 0-4.802 2.827-5.582 4.912v10.383c0 3.045 1.338 5.36 4.071 5.36h.117c.553 0 .831.282.831.846v1.694c0 .565-.278.842-.832.842h-16.22c-.563 0-.842-.277-.842-.842v-1.694c0-.564.279-.847.841-.847h.107c2.733 0 4.072-2.314 4.072-5.359v-7.213l-.001-.2-.002-.2c-.03-2.834-.39-5.664-3.288-5.989-.558-.051-.67-.338-.67-.734v-1.914c0-.457.28-.622.837-.734 5.299-.847 9.533-3.05 10.979-4.122.116-.056.167-.113.283-.113h.107Zm28.278 0c.06 0 .116 0 .116.057l-1.338 7.617c2.003-4.343 5.851-6.658 9.811-6.658 3.454 0 6.294 1.976 6.294 5.811 0 1.694-.107 3.049-1.446 3.613l-5.238 2.146c-.167.108-.335.108-.502.108-.335 0-.502-.221-.502-.503 0-.17.056-.34.112-.508.441-1.073.501-2.033.501-2.823 0-2.033-1.115-2.936-2.616-2.936-2.566 0-4.802 2.827-5.582 4.912v10.383c0 3.045 1.338 5.36 4.071 5.36h.116c.553 0 .832.282.832.846v1.694c0 .565-.279.842-.832.842h-16.221c-.562 0-.841-.277-.841-.842v-1.694c0-.564.279-.847.841-.847h.107c2.733 0 4.072-2.314 4.072-5.359v-7.113l-.001-.3c-.017-2.9-.325-5.857-3.29-6.189-.558-.051-.669-.338-.669-.734v-1.914c0-.457.278-.622.836-.734 5.299-.847 9.533-3.05 10.979-4.122.116-.056.167-.113.283-.113h.107Zm27.444 5.59c-.725 0-1.505.169-2.231.503-2.454 1.077-3.397 3.33-3.397 5.928 0 2.084.613 4.404 1.562 6.6 1.784 4.01 4.731 7.505 8.194 7.505.725 0 1.445-.17 2.226-.503 2.398-1.078 3.347-3.331 3.347-5.928 0-2.09-.614-4.456-1.562-6.601-1.729-4.01-4.741-7.505-8.139-7.505ZM64.417.563c.999 0 1.78.395 2.784 1.411 1.004 1.016 1.394 1.807 1.394 2.818 0 1.017-.39 1.868-1.394 2.823-1.004 1.017-1.785 1.412-2.784 1.412-1.004 0-1.846-.395-2.789-1.412-1.004-.955-1.394-1.806-1.394-2.823 0-1.011.39-1.802 1.394-2.818C62.572.96 63.413.564 64.417.564Z" fill="#fff"/></svg>