<svg width="160" height="19" fill="none" xmlns="http://www.w3.org/2000/svg"><path fill-rule="evenodd" clip-rule="evenodd" d="M159.17 19a.833.833 0 0 1-.586-.24L141.576 1.976 124.569 18.76a.861.861 0 0 1-1.172 0L106.39 1.976 89.383 18.76a.862.862 0 0 1-1.173 0L71.203 1.976 54.196 18.76a.862.862 0 0 1-1.172 0L36.016 1.976 19.01 18.76a.862.862 0 0 1-1.172 0L.242 1.397a.81.81 0 0 1 0-1.157.836.836 0 0 1 1.173 0l17.007 16.784L35.43.24a.836.836 0 0 1 1.172 0L53.61 17.024 70.617.24a.862.862 0 0 1 1.173 0l17.007 16.784L105.804.24a.861.861 0 0 1 1.172 0l17.007 16.784L140.99.24a.862.862 0 0 1 1.173 0l17.594 17.363a.81.81 0 0 1 0 1.157.834.834 0 0 1-.587.24Z" fill="#000"/></svg>